<mxfile host="65bd71144e">
    <diagram id="Cw2Wp6MlhYI4DvoN3dn1" name="Page-1">
        <mxGraphModel dx="1031" dy="726" grid="1" gridSize="10" guides="1" tooltips="1" connect="1" arrows="1" fold="1" page="1" pageScale="1" pageWidth="850" pageHeight="1100" math="0" shadow="0">
            <root>
                <mxCell id="0"/>
                <mxCell id="1" parent="0"/>
                <mxCell id="78" value=" Activity Diagram Login" style="shape=table;childLayout=tableLayout;startSize=40;collapsible=0;recursiveResize=0;expand=0;strokeColor=default;align=left;verticalAlign=middle;fontFamily=Helvetica;fontSize=15;fontColor=default;fillColor=none;fontStyle=1;strokeWidth=3;" parent="1" vertex="1">
                    <mxGeometry x="10" y="10" width="830" height="730" as="geometry"/>
                </mxCell>
                <mxCell id="79" value="" style="shape=tableRow;horizontal=0;swimlaneHead=0;swimlaneBody=0;top=0;left=0;strokeColor=inherit;bottom=0;right=0;dropTarget=0;fontStyle=1;fillColor=none;points=[[0,0.5],[1,0.5]];portConstraint=eastwest;startSize=40;collapsible=0;recursiveResize=0;expand=0;align=center;verticalAlign=middle;fontFamily=Helvetica;fontSize=13;fontColor=default;strokeWidth=3;" parent="78" vertex="1">
                    <mxGeometry y="40" width="830" height="690" as="geometry"/>
                </mxCell>
                <mxCell id="80" value="USER    " style="swimlane;swimlaneHead=0;swimlaneBody=0;fontStyle=1;strokeColor=inherit;connectable=0;fillColor=none;startSize=40;collapsible=0;recursiveResize=0;expand=0;align=center;verticalAlign=middle;fontFamily=Helvetica;fontSize=15;fontColor=default;strokeWidth=3;" parent="79" vertex="1">
                    <mxGeometry x="40" width="380" height="690" as="geometry">
                        <mxRectangle width="380" height="690" as="alternateBounds"/>
                    </mxGeometry>
                </mxCell>
                <mxCell id="88" style="edgeStyle=none;html=1;exitX=0.5;exitY=1;exitDx=0;exitDy=0;fontFamily=Helvetica;fontSize=13;fontColor=default;strokeWidth=3;fontStyle=1" parent="80" source="85" target="87" edge="1">
                    <mxGeometry relative="1" as="geometry"/>
                </mxCell>
                <mxCell id="85" value="" style="ellipse;whiteSpace=wrap;html=1;aspect=fixed;strokeColor=default;align=center;verticalAlign=middle;fontFamily=Helvetica;fontSize=13;fontColor=default;fillColor=light-dark(#464444, #ededed);strokeWidth=3;fontStyle=1" parent="80" vertex="1">
                    <mxGeometry x="130" y="50" width="20" height="20" as="geometry"/>
                </mxCell>
                <mxCell id="87" value="Membuka Sistem" style="rounded=1;whiteSpace=wrap;html=1;strokeColor=default;align=center;verticalAlign=middle;fontFamily=Helvetica;fontSize=13;fontColor=default;fillColor=none;strokeWidth=3;fontStyle=1" parent="80" vertex="1">
                    <mxGeometry x="40" y="120" width="200" height="80" as="geometry"/>
                </mxCell>
                <mxCell id="95" value="Memasukkan Username Dan Password" style="rounded=1;whiteSpace=wrap;html=1;strokeColor=default;align=center;verticalAlign=middle;fontFamily=Helvetica;fontSize=13;fontColor=default;fillColor=none;strokeWidth=3;fontStyle=1" parent="80" vertex="1">
                    <mxGeometry x="40" y="240" width="200" height="80" as="geometry"/>
                </mxCell>
                <mxCell id="96" value="Klik Tombol Login" style="rounded=1;whiteSpace=wrap;html=1;strokeColor=default;align=center;verticalAlign=middle;fontFamily=Helvetica;fontSize=13;fontColor=default;fillColor=none;strokeWidth=3;fontStyle=1" parent="80" vertex="1">
                    <mxGeometry x="40" y="400" width="200" height="80" as="geometry"/>
                </mxCell>
                <mxCell id="102" value="" style="endArrow=classic;html=1;fontFamily=Helvetica;fontSize=13;fontColor=default;exitX=0.5;exitY=1;exitDx=0;exitDy=0;strokeWidth=3;fontStyle=1" parent="80" source="95" edge="1">
                    <mxGeometry width="50" height="50" relative="1" as="geometry">
                        <mxPoint x="140" y="360" as="sourcePoint"/>
                        <mxPoint x="140" y="400" as="targetPoint"/>
                    </mxGeometry>
                </mxCell>
                <mxCell id="103" value="" style="endArrow=classic;html=1;fontFamily=Helvetica;fontSize=13;fontColor=default;entryX=0;entryY=0.5;entryDx=0;entryDy=0;strokeWidth=3;fontStyle=1" parent="80" target="91" edge="1">
                    <mxGeometry width="50" height="50" relative="1" as="geometry">
                        <mxPoint x="240" y="159.5" as="sourcePoint"/>
                        <mxPoint x="360" y="159.5" as="targetPoint"/>
                    </mxGeometry>
                </mxCell>
                <mxCell id="81" value="SYSTEM" style="swimlane;swimlaneHead=0;swimlaneBody=0;fontStyle=1;strokeColor=inherit;connectable=0;fillColor=none;startSize=40;collapsible=0;recursiveResize=0;expand=0;align=center;verticalAlign=middle;fontFamily=Helvetica;fontSize=15;fontColor=default;strokeWidth=3;" parent="79" vertex="1">
                    <mxGeometry x="420" width="410" height="690" as="geometry">
                        <mxRectangle width="410" height="690" as="alternateBounds"/>
                    </mxGeometry>
                </mxCell>
                <mxCell id="86" value="" style="ellipse;whiteSpace=wrap;html=1;aspect=fixed;strokeColor=default;align=center;verticalAlign=middle;fontFamily=Helvetica;fontSize=13;fontColor=default;fillColor=light-dark(#464444, #ededed);strokeWidth=3;fontStyle=1" parent="81" vertex="1">
                    <mxGeometry x="210" y="640" width="20" height="20" as="geometry"/>
                </mxCell>
                <mxCell id="91" value="Menampilkan Halaman Login" style="rounded=1;whiteSpace=wrap;html=1;strokeColor=default;align=center;verticalAlign=middle;fontFamily=Helvetica;fontSize=13;fontColor=default;fillColor=none;strokeWidth=3;fontStyle=1" parent="81" vertex="1">
                    <mxGeometry x="100" y="120" width="200" height="80" as="geometry"/>
                </mxCell>
                <mxCell id="97" value="Cek Username &amp;amp;&amp;nbsp;&lt;div&gt;Password&lt;div&gt;&lt;br&gt;&lt;/div&gt;&lt;/div&gt;" style="rhombus;whiteSpace=wrap;html=1;strokeColor=default;align=center;verticalAlign=middle;fontFamily=Helvetica;fontSize=13;fontColor=default;fillColor=none;strokeWidth=3;fontStyle=1" parent="81" vertex="1">
                    <mxGeometry x="140" y="380" width="160" height="120" as="geometry"/>
                </mxCell>
                <mxCell id="98" value="Menampilkan Tampilan Utama Sistem" style="rounded=1;whiteSpace=wrap;html=1;strokeColor=default;align=center;verticalAlign=middle;fontFamily=Helvetica;fontSize=13;fontColor=default;fillColor=none;strokeWidth=3;fontStyle=1" parent="81" vertex="1">
                    <mxGeometry x="110" y="530" width="200" height="80" as="geometry"/>
                </mxCell>
                <mxCell id="106" value="" style="edgeStyle=elbowEdgeStyle;elbow=horizontal;endArrow=classic;html=1;curved=0;rounded=0;endSize=8;startSize=8;fontFamily=Helvetica;fontSize=13;fontColor=default;strokeWidth=3;fontStyle=1" parent="81" edge="1">
                    <mxGeometry width="50" height="50" relative="1" as="geometry">
                        <mxPoint x="180" y="200" as="sourcePoint"/>
                        <mxPoint x="-140" y="280" as="targetPoint"/>
                        <Array as="points">
                            <mxPoint x="180" y="270"/>
                        </Array>
                    </mxGeometry>
                </mxCell>
                <mxCell id="109" value="" style="edgeStyle=elbowEdgeStyle;elbow=horizontal;endArrow=classic;html=1;curved=0;rounded=0;endSize=8;startSize=8;fontFamily=Helvetica;fontSize=13;fontColor=default;entryX=1;entryY=0.5;entryDx=0;entryDy=0;strokeWidth=3;fontStyle=1" parent="81" target="91" edge="1">
                    <mxGeometry width="50" height="50" relative="1" as="geometry">
                        <mxPoint x="300" y="440" as="sourcePoint"/>
                        <mxPoint x="350" y="390" as="targetPoint"/>
                        <Array as="points">
                            <mxPoint x="340" y="300"/>
                        </Array>
                    </mxGeometry>
                </mxCell>
                <mxCell id="111" value="" style="endArrow=classic;html=1;fontFamily=Helvetica;fontSize=13;fontColor=default;exitX=0.5;exitY=1;exitDx=0;exitDy=0;strokeWidth=3;fontStyle=1" parent="81" edge="1">
                    <mxGeometry width="50" height="50" relative="1" as="geometry">
                        <mxPoint x="219.5" y="500" as="sourcePoint"/>
                        <mxPoint x="220" y="530" as="targetPoint"/>
                    </mxGeometry>
                </mxCell>
                <mxCell id="112" style="edgeStyle=none;html=1;exitX=0.5;exitY=1;exitDx=0;exitDy=0;fontFamily=Helvetica;fontSize=13;fontColor=default;strokeWidth=3;fontStyle=1" parent="81" edge="1">
                    <mxGeometry relative="1" as="geometry">
                        <mxPoint x="219.5" y="610" as="sourcePoint"/>
                        <mxPoint x="220" y="640" as="targetPoint"/>
                    </mxGeometry>
                </mxCell>
                <mxCell id="114" value="Tidak" style="text;html=1;align=center;verticalAlign=middle;resizable=0;points=[];autosize=1;strokeColor=none;fillColor=none;fontFamily=Helvetica;fontSize=13;fontColor=default;strokeWidth=3;fontStyle=1" parent="81" vertex="1">
                    <mxGeometry x="290" y="278" width="50" height="30" as="geometry"/>
                </mxCell>
                <mxCell id="107" value="" style="endArrow=classic;html=1;fontFamily=Helvetica;fontSize=13;fontColor=default;exitX=1;exitY=0.5;exitDx=0;exitDy=0;entryX=0;entryY=0.5;entryDx=0;entryDy=0;strokeWidth=3;fontStyle=1" parent="79" source="96" target="97" edge="1">
                    <mxGeometry width="50" height="50" relative="1" as="geometry">
                        <mxPoint x="320" y="440" as="sourcePoint"/>
                        <mxPoint x="320" y="520" as="targetPoint"/>
                    </mxGeometry>
                </mxCell>
                <mxCell id="113" value="Ya" style="text;html=1;align=center;verticalAlign=middle;resizable=0;points=[];autosize=1;strokeColor=none;fillColor=none;fontFamily=Helvetica;fontSize=13;fontColor=default;strokeWidth=3;fontStyle=1" parent="1" vertex="1">
                    <mxGeometry x="690" y="558" width="40" height="30" as="geometry"/>
                </mxCell>
            </root>
        </mxGraphModel>
    </diagram>
</mxfile>